

<svg version="1.1" xmlns="http://www.w3.org/2000/svg" xmlns:xlink="http://www.w3.org/1999/xlink" x="0px" y="0px" width="200px" height="200px" viewBox="0 0 200 200" style="enable-background:new 0 0 200 200;" xml:space="preserve" class="icon">

<style type="text/css">

.st0 {
    fill:none;
    stroke:#F2F2F2;
    stroke-width:4;
    stroke-miterlimit:10;
}
.icon .st0 {
    -webkit-transition: .5s;
    -moz-transition: .5s;
    transition: .5s;
}
.icon .fill {
    -webkit-transition: .5s;
    -moz-transition: .5s;
    transition: .5s;
    fill: #ffffff;
}
.icon:hover {
    cursor: pointer;
}
.icon:hover .st0 {
    stroke: #1f8a4c;
}
.icon:hover .fill {
    -webkit-transform: scale(893, 893);
    -moz-transform: scale(893, 893);
    transform: scale(893, 893);
}

</style>

	
    <g id="fill" transform="translate(101,99)">
        <circle class="fill" r="0.1" />
    </g>
    <g id="Layer_1" class="st5">
        <path class="h0" d="M247,180" />
    </g>
    <g id="icon_2_">
        <path class="st0" d="M155.5,70.5c0,5.799-4.701,10.5-10.5,10.5H55.5C49.701,81,45,76.299,45,70.5l0,0C45,64.701,49.701,60,55.5,60
		H145C150.799,60,155.5,64.701,155.5,70.5L155.5,70.5z" />
        <path class="st0" d="M155.5,100.5c0,5.799-4.701,10.5-10.5,10.5H55.5c-5.799,0-10.5-4.701-10.5-10.5l0,0
		C45,94.701,49.701,90,55.5,90H145C150.799,90,155.5,94.701,155.5,100.5L155.5,100.5z" />
        <path class="st0" d="M155.5,130.5c0,5.799-4.701,10.5-10.5,10.5H55.5c-5.799,0-10.5-4.701-10.5-10.5l0,0
		c0-5.799,4.701-10.5,10.5-10.5H145C150.799,120,155.5,124.701,155.5,130.5L155.5,130.5z" />
    </g>

    <g id="container">
        <circle class="st0" cx="101" cy="99" r="89.333" />
    </g>
</svg>