<?xml version="1.0" encoding="utf-8"?>
<!-- Generator: Adobe Illustrator 15.0.0, SVG Export Plug-In . SVG Version: 6.00 Build 0)  -->
<!DOCTYPE svg PUBLIC "-//W3C//DTD SVG 1.1//EN" "http://www.w3.org/Graphics/SVG/1.1/DTD/svg11.dtd">
<svg version="1.1" xmlns="http://www.w3.org/2000/svg" xmlns:xlink="http://www.w3.org/1999/xlink" x="0px" y="0px" width="89.75px"
	 height="91.25px" viewBox="0 0 89.75 91.25" style="enable-background:new 0 0 89.75 91.25;" xml:space="preserve">
<style type="text/css">
<![CDATA[
	.st0{fill:#F7931E;}
	.st1{fill:#FCEE21;}
	.st2{fill:#352A24;}
	.st3{display:none;}
]]>
</style>
<g id="Layer_1" class="st3">
</g>
<g id="branch">
	<path class="st2" d="M74.292,2.688c0,0,5.277,31.238-44.031,55.489c-17.396,8.554-19.565,21.354-18.091,30.986h6.902
		c-1.695-8.763-0.34-19.908,13.699-26.744C58.637,49.827,79.567,22.939,74.292,2.688z"/>
</g>
<g id="leaves">
	<path class="st0" d="M52.671,51.978c0,0,9.323,6.733,18.417,0.235c9.098-6.494,11.716-3.966,11.716-3.966
		s-18.476-12.426-31.92,2.424L52.671,51.978z"/>
	<path class="st1" d="M54.686,51.262c0,0,9.139-8.96,21.293-4.055"/>
	<path class="st0" d="M41.437,50.661c0,0,3.971-10.792-4.737-17.8c-8.704-7.012-6.975-10.214-6.975-10.214
		s-6.99,21.14,10.934,30.086L41.437,50.661z"/>
	<path class="st1" d="M40.204,48.914c0,0-11.091-6.387-9.642-19.413"/>
	<path class="st0" d="M62.42,32.905c0,0,0.232-9.613-8.555-12.811c-8.784-3.197-8.28-6.201-8.28-6.201s0.177,18.62,16.778,20.862
		L62.42,32.905z"/>
	<path class="st1" d="M62.057,34.243c0,0-12.282-3.59-13.95-16.586"/>
</g>
</svg>
